<svg xmlns="http://www.w3.org/2000/svg" viewBox="0 0 400 400" width="400" height="400">
  <defs>
    <radialGradient id="bg" cx="50%" cy="50%" r="70%">
      <stop offset="0%" stop-color="#4a7fa5"/>
      <stop offset="100%" stop-color="#264e70"/>
    </radialGradient>
  </defs>
  <rect width="400" height="400" fill="url(#bg)"/>
  <!-- Small bowl (kobachi) silhouette -->
  <path d="M110,190 C110,175 130,160 155,152 C175,146 190,144 200,143 C210,144 225,146 245,152 C270,160 290,175 290,190 L285,260 C283,278 265,290 240,295 L160,295 C135,290 117,278 115,260 Z" fill="rgba(255,252,245,0.88)"/>
  <ellipse cx="200" cy="188" rx="90" ry="28" fill="rgba(255,252,245,0.65)"/>
  <ellipse cx="200" cy="295" rx="42" ry="7" fill="rgba(255,252,245,0.88)"/>
  <text x="200" y="355" text-anchor="middle" fill="white" font-family="sans-serif" font-size="22" font-weight="bold">色絵小鉢</text>
  <text x="200" y="380" text-anchor="middle" fill="rgba(255,255,255,0.6)" font-family="sans-serif" font-size="12">Arita-yaki</text>
</svg>
