<svg xmlns="http://www.w3.org/2000/svg" viewBox="0 0 400 400" width="400" height="400">
  <defs>
    <radialGradient id="bg" cx="50%" cy="50%" r="70%">
      <stop offset="0%" stop-color="#8B7355"/>
      <stop offset="100%" stop-color="#6B5B4A"/>
    </radialGradient>
  </defs>
  <rect width="400" height="400" fill="url(#bg)"/>
  <!-- Flower vase (tall, organic) silhouette -->
  <path d="M175,310 C155,305 145,290 142,265 C140,240 145,210 142,180 C140,155 148,130 155,115 C160,105 165,95 168,80 C172,68 180,58 190,54 C195,52 200,51 200,51 C200,51 205,52 210,54 C220,58 228,68 232,80 C235,95 240,105 245,115 C252,130 260,155 258,180 C255,210 260,240 258,265 C255,290 245,305 225,310 Z" fill="rgba(255,248,235,0.85)"/>
  <ellipse cx="200" cy="51" rx="22" ry="7" fill="rgba(255,248,235,0.85)"/>
  <ellipse cx="200" cy="310" rx="28" ry="6" fill="rgba(255,248,235,0.85)"/>
  <text x="200" y="360" text-anchor="middle" fill="white" font-family="sans-serif" font-size="22" font-weight="bold">自然釉花器</text>
  <text x="200" y="385" text-anchor="middle" fill="rgba(255,255,255,0.6)" font-family="sans-serif" font-size="12">Shigaraki-yaki</text>
</svg>
